{
	"asset":{
		"generator":"Khronos glTF Blender I/O v5.1.20",
		"version":"2.0"
	},
	"scene":0,
	"scenes":[
		{
			"name":"Scene",
			"nodes":[
				0
			]
		}
	],
	"nodes":[
		{
			"mesh":0,
			"name":"FirstStage",
			"rotation":[
				0,
				0.011291589587926865,
				0,
				0.9999363422393799
			],
			"scale":[
				0.5522239804267883,
				0.5522239208221436,
				0.5522239804267883
			],
			"translation":[
				-0.03987810015678406,
				3.7630553245544434,
				-0.030486643314361572
			]
		}
	],
	"materials":[
		{
			"doubleSided":true,
			"name":"Material.020",
			"pbrMetallicRoughness":{
				"baseColorFactor":[
					0.9734454154968262,
					0.41254279017448425,
					0.13286836445331573,
					1
				],
				"metallicFactor":0,
				"roughnessFactor":0.5
			}
		},
		{
			"doubleSided":true,
			"name":"Material.007",
			"pbrMetallicRoughness":{
				"baseColorFactor":[
					0.7601375579833984,
					0.16363784670829773,
					0.006116262637078762,
					1
				],
				"metallicFactor":0,
				"roughnessFactor":0.5
			}
		},
		{
			"doubleSided":true,
			"name":"Material.039",
			"pbrMetallicRoughness":{
				"baseColorFactor":[
					0.800000011920929,
					0.800000011920929,
					0.800000011920929,
					1
				],
				"metallicFactor":0,
				"roughnessFactor":0.5
			}
		},
		{
			"doubleSided":true,
			"name":"Material.120",
			"pbrMetallicRoughness":{
				"baseColorFactor":[
					0.03189604729413986,
					0.03189604729413986,
					0.03189604729413986,
					1
				],
				"metallicFactor":0,
				"roughnessFactor":0.5
			}
		},
		{
			"doubleSided":true,
			"name":"Material.114",
			"pbrMetallicRoughness":{
				"baseColorFactor":[
					0.800000011920929,
					0.800000011920929,
					0.800000011920929,
					1
				],
				"metallicFactor":0,
				"roughnessFactor":0.5
			}
		},
		{
			"doubleSided":true,
			"name":"Material.115",
			"pbrMetallicRoughness":{
				"baseColorFactor":[
					0.8000156879425049,
					0.6714963912963867,
					0.17019157111644745,
					1
				],
				"metallicFactor":0,
				"roughnessFactor":0.5
			}
		},
		{
			"doubleSided":true,
			"name":"Material.118",
			"pbrMetallicRoughness":{
				"baseColorFactor":[
					0.800000011920929,
					0.800000011920929,
					0.800000011920929,
					1
				],
				"metallicFactor":0,
				"roughnessFactor":0.5
			}
		},
		{
			"doubleSided":true,
			"name":"Material.119",
			"pbrMetallicRoughness":{
				"baseColorFactor":[
					0.03189604729413986,
					0.03189604729413986,
					0.03189604729413986,
					1
				],
				"metallicFactor":0,
				"roughnessFactor":0.5
			}
		},
		{
			"doubleSided":true,
			"name":"Material.040",
			"pbrMetallicRoughness":{
				"baseColorFactor":[
					0.03189604729413986,
					0.03189604729413986,
					0.03189604729413986,
					1
				],
				"metallicFactor":0,
				"roughnessFactor":0.5
			}
		},
		{
			"doubleSided":true,
			"name":"Material.113",
			"pbrMetallicRoughness":{
				"baseColorFactor":[
					0.7991030812263489,
					0.03954624384641647,
					0.020288560539484024,
					1
				],
				"metallicFactor":0,
				"roughnessFactor":0.5
			}
		},
		{
			"doubleSided":true,
			"name":"Material.116",
			"pbrMetallicRoughness":{
				"baseColorFactor":[
					0.800000011920929,
					0.800000011920929,
					0.800000011920929,
					1
				],
				"metallicFactor":0,
				"roughnessFactor":0.5
			}
		},
		{
			"doubleSided":true,
			"name":"Material.117",
			"pbrMetallicRoughness":{
				"baseColorFactor":[
					0.03189604729413986,
					0.03189604729413986,
					0.03189604729413986,
					1
				],
				"metallicFactor":0,
				"roughnessFactor":0.5
			}
		},
		{
			"doubleSided":true,
			"name":"Material.042",
			"pbrMetallicRoughness":{
				"baseColorFactor":[
					0.800000011920929,
					0.800000011920929,
					0.800000011920929,
					1
				],
				"metallicFactor":0,
				"roughnessFactor":0.5
			}
		},
		{
			"doubleSided":true,
			"name":"Material.043",
			"pbrMetallicRoughness":{
				"baseColorFactor":[
					0.03189604729413986,
					0.03189604729413986,
					0.03189604729413986,
					1
				],
				"metallicFactor":0,
				"roughnessFactor":0.5
			}
		},
		{
			"doubleSided":true,
			"name":"Material.044",
			"pbrMetallicRoughness":{
				"baseColorFactor":[
					0.8000156879425049,
					0.03978605195879936,
					0.020450236275792122,
					1
				],
				"metallicFactor":0,
				"roughnessFactor":0.5
			}
		}
	],
	"meshes":[
		{
			"name":"Cylinder",
			"primitives":[
				{
					"attributes":{
						"POSITION":0,
						"NORMAL":1,
						"TEXCOORD_0":2
					},
					"indices":3,
					"material":0
				},
				{
					"attributes":{
						"POSITION":4,
						"NORMAL":5,
						"TEXCOORD_0":6
					},
					"indices":7,
					"material":1
				},
				{
					"attributes":{
						"POSITION":8,
						"NORMAL":9,
						"TEXCOORD_0":10
					},
					"indices":11,
					"material":2
				},
				{
					"attributes":{
						"POSITION":12,
						"NORMAL":13,
						"TEXCOORD_0":14
					},
					"indices":15,
					"material":3
				},
				{
					"attributes":{
						"POSITION":16,
						"NORMAL":17,
						"TEXCOORD_0":18
					},
					"indices":19,
					"material":4
				},
				{
					"attributes":{
						"POSITION":20,
						"NORMAL":21,
						"TEXCOORD_0":22
					},
					"indices":23,
					"material":5
				},
				{
					"attributes":{
						"POSITION":24,
						"NORMAL":25,
						"TEXCOORD_0":26
					},
					"indices":27,
					"material":6
				},
				{
					"attributes":{
						"POSITION":28,
						"NORMAL":29,
						"TEXCOORD_0":30
					},
					"indices":31,
					"material":7
				},
				{
					"attributes":{
						"POSITION":32,
						"NORMAL":33,
						"TEXCOORD_0":34
					},
					"indices":35,
					"material":8
				},
				{
					"attributes":{
						"POSITION":36,
						"NORMAL":37,
						"TEXCOORD_0":38
					},
					"indices":39,
					"material":9
				},
				{
					"attributes":{
						"POSITION":40,
						"NORMAL":41,
						"TEXCOORD_0":42
					},
					"indices":43,
					"material":10
				},
				{
					"attributes":{
						"POSITION":44,
						"NORMAL":45,
						"TEXCOORD_0":46
					},
					"indices":47,
					"material":11
				},
				{
					"attributes":{
						"POSITION":48,
						"NORMAL":49,
						"TEXCOORD_0":50
					},
					"indices":51,
					"material":12
				},
				{
					"attributes":{
						"POSITION":52,
						"NORMAL":53,
						"TEXCOORD_0":54
					},
					"indices":55,
					"material":13
				},
				{
					"attributes":{
						"POSITION":56,
						"NORMAL":57,
						"TEXCOORD_0":58
					},
					"indices":59,
					"material":14
				}
			]
		}
	],
	"accessors":[
		{
			"bufferView":0,
			"componentType":5126,
			"count":8612,
			"max":[
				1.0187504291534424,
				16.21921730041504,
				1.0240046977996826
			],
			"min":[
				-1.0187506675720215,
				-4.936322212219238,
				-1.0134963989257812
			],
			"type":"VEC3"
		},
		{
			"bufferView":1,
			"componentType":5126,
			"count":8612,
			"type":"VEC3"
		},
		{
			"bufferView":2,
			"componentType":5126,
			"count":8612,
			"type":"VEC2"
		},
		{
			"bufferView":3,
			"componentType":5123,
			"count":18108,
			"type":"SCALAR"
		},
		{
			"bufferView":4,
			"componentType":5126,
			"count":2385,
			"max":[
				1.2138009071350098,
				10.294844627380371,
				1
			],
			"min":[
				-1.184760332107544,
				-6.156614780426025,
				-1
			],
			"type":"VEC3"
		},
		{
			"bufferView":5,
			"componentType":5126,
			"count":2385,
			"type":"VEC3"
		},
		{
			"bufferView":6,
			"componentType":5126,
			"count":2385,
			"type":"VEC2"
		},
		{
			"bufferView":7,
			"componentType":5123,
			"count":6492,
			"type":"SCALAR"
		},
		{
			"bufferView":8,
			"componentType":5126,
			"count":7808,
			"max":[
				1.1923909187316895,
				16.21921730041504,
				1.0240046977996826
			],
			"min":[
				-1.1633503437042236,
				-6.802247047424316,
				-2.1832666397094727
			],
			"type":"VEC3"
		},
		{
			"bufferView":9,
			"componentType":5126,
			"count":7808,
			"type":"VEC3"
		},
		{
			"bufferView":10,
			"componentType":5126,
			"count":7808,
			"type":"VEC2"
		},
		{
			"bufferView":11,
			"componentType":5123,
			"count":24210,
			"type":"SCALAR"
		},
		{
			"bufferView":12,
			"componentType":5126,
			"count":1638,
			"max":[
				1,
				8.406451225280762,
				1
			],
			"min":[
				-1,
				-6.7545576095581055,
				-1
			],
			"type":"VEC3"
		},
		{
			"bufferView":13,
			"componentType":5126,
			"count":1638,
			"type":"VEC3"
		},
		{
			"bufferView":14,
			"componentType":5126,
			"count":1638,
			"type":"VEC2"
		},
		{
			"bufferView":15,
			"componentType":5123,
			"count":7752,
			"type":"SCALAR"
		},
		{
			"bufferView":16,
			"componentType":5126,
			"count":8737,
			"max":[
				0.6356706619262695,
				11.842175483703613,
				0.6397992968559265
			],
			"min":[
				-0.6438591480255127,
				8.308774948120117,
				-0.6397305727005005
			],
			"type":"VEC3"
		},
		{
			"bufferView":17,
			"componentType":5126,
			"count":8737,
			"type":"VEC3"
		},
		{
			"bufferView":18,
			"componentType":5126,
			"count":8737,
			"type":"VEC2"
		},
		{
			"bufferView":19,
			"componentType":5123,
			"count":23454,
			"type":"SCALAR"
		},
		{
			"bufferView":20,
			"componentType":5126,
			"count":144,
			"max":[
				0.6356706619262695,
				10.946097373962402,
				0.6397992968559265
			],
			"min":[
				-0.6438590884208679,
				10.283564567565918,
				-0.6397305130958557
			],
			"type":"VEC3"
		},
		{
			"bufferView":21,
			"componentType":5126,
			"count":144,
			"type":"VEC3"
		},
		{
			"bufferView":22,
			"componentType":5126,
			"count":144,
			"type":"VEC2"
		},
		{
			"bufferView":23,
			"componentType":5123,
			"count":384,
			"type":"SCALAR"
		},
		{
			"bufferView":24,
			"componentType":5126,
			"count":112,
			"max":[
				0.6785181760787964,
				12.530467987060547,
				0.018687201663851738
			],
			"min":[
				-0.6788961887359619,
				11.161425590515137,
				-0.661361813545227
			],
			"type":"VEC3"
		},
		{
			"bufferView":25,
			"componentType":5126,
			"count":112,
			"type":"VEC3"
		},
		{
			"bufferView":26,
			"componentType":5126,
			"count":112,
			"type":"VEC2"
		},
		{
			"bufferView":27,
			"componentType":5123,
			"count":456,
			"type":"SCALAR"
		},
		{
			"bufferView":28,
			"componentType":5126,
			"count":16,
			"max":[
				0.5489884614944458,
				11.422538757324219,
				-0.33938753604888916
			],
			"min":[
				-0.5490833520889282,
				11.161425590515137,
				-0.5434877276420593
			],
			"type":"VEC3"
		},
		{
			"bufferView":29,
			"componentType":5126,
			"count":16,
			"type":"VEC3"
		},
		{
			"bufferView":30,
			"componentType":5126,
			"count":16,
			"type":"VEC2"
		},
		{
			"bufferView":31,
			"componentType":5123,
			"count":24,
			"type":"SCALAR"
		},
		{
			"bufferView":32,
			"componentType":5126,
			"count":1893,
			"max":[
				0.6426423192024231,
				5.456421852111816,
				-0.9226580262184143
			],
			"min":[
				-0.5670151114463806,
				-6.426539897918701,
				-2.1323153972625732
			],
			"type":"VEC3"
		},
		{
			"bufferView":33,
			"componentType":5126,
			"count":1893,
			"type":"VEC3"
		},
		{
			"bufferView":34,
			"componentType":5126,
			"count":1893,
			"type":"VEC2"
		},
		{
			"bufferView":35,
			"componentType":5123,
			"count":4326,
			"type":"SCALAR"
		},
		{
			"bufferView":36,
			"componentType":5126,
			"count":144,
			"max":[
				0.5068548917770386,
				4.849278450012207,
				-1.051267147064209
			],
			"min":[
				-0.44414660334587097,
				-5.805873870849609,
				-2.0022685527801514
			],
			"type":"VEC3"
		},
		{
			"bufferView":37,
			"componentType":5126,
			"count":144,
			"type":"VEC3"
		},
		{
			"bufferView":38,
			"componentType":5126,
			"count":144,
			"type":"VEC2"
		},
		{
			"bufferView":39,
			"componentType":5123,
			"count":384,
			"type":"SCALAR"
		},
		{
			"bufferView":40,
			"componentType":5126,
			"count":113,
			"max":[
				0.6784880757331848,
				12.530467987060547,
				0.6646870970726013
			],
			"min":[
				-0.6775420308113098,
				11.161425590515137,
				-0.0439726859331131
			],
			"type":"VEC3"
		},
		{
			"bufferView":41,
			"componentType":5126,
			"count":113,
			"type":"VEC3"
		},
		{
			"bufferView":42,
			"componentType":5126,
			"count":113,
			"type":"VEC2"
		},
		{
			"bufferView":43,
			"componentType":5123,
			"count":456,
			"type":"SCALAR"
		},
		{
			"bufferView":44,
			"componentType":5126,
			"count":14,
			"max":[
				0.5325413346290588,
				11.422538757324219,
				0.5658924579620361
			],
			"min":[
				-0.5644106268882751,
				11.161425590515137,
				0.320843368768692
			],
			"type":"VEC3"
		},
		{
			"bufferView":45,
			"componentType":5126,
			"count":14,
			"type":"VEC3"
		},
		{
			"bufferView":46,
			"componentType":5126,
			"count":14,
			"type":"VEC2"
		},
		{
			"bufferView":47,
			"componentType":5123,
			"count":24,
			"type":"SCALAR"
		},
		{
			"bufferView":48,
			"componentType":5126,
			"count":3908,
			"max":[
				0.6235548853874207,
				5.996610641479492,
				2.2010490894317627
			],
			"min":[
				-0.6972634196281433,
				-6.802247047424316,
				0.880230724811554
			],
			"type":"VEC3"
		},
		{
			"bufferView":49,
			"componentType":5126,
			"count":3908,
			"type":"VEC3"
		},
		{
			"bufferView":50,
			"componentType":5126,
			"count":3908,
			"type":"VEC2"
		},
		{
			"bufferView":51,
			"componentType":5123,
			"count":13734,
			"type":"SCALAR"
		},
		{
			"bufferView":52,
			"componentType":5126,
			"count":1890,
			"max":[
				0.5726699829101562,
				5.456421852111816,
				2.1501641273498535
			],
			"min":[
				-0.6463785171508789,
				-6.426539897918701,
				0.9311156272888184
			],
			"type":"VEC3"
		},
		{
			"bufferView":53,
			"componentType":5126,
			"count":1890,
			"type":"VEC3"
		},
		{
			"bufferView":54,
			"componentType":5126,
			"count":1890,
			"type":"VEC2"
		},
		{
			"bufferView":55,
			"componentType":5123,
			"count":4320,
			"type":"SCALAR"
		},
		{
			"bufferView":56,
			"componentType":5126,
			"count":144,
			"max":[
				0.43684372305870056,
				4.849278450012207,
				2.0202443599700928
			],
			"min":[
				-0.5129189491271973,
				-5.805873870849609,
				1.0704816579818726
			],
			"type":"VEC3"
		},
		{
			"bufferView":57,
			"componentType":5126,
			"count":144,
			"type":"VEC3"
		},
		{
			"bufferView":58,
			"componentType":5126,
			"count":144,
			"type":"VEC2"
		},
		{
			"bufferView":59,
			"componentType":5123,
			"count":384,
			"type":"SCALAR"
		}
	],
	"bufferViews":[
		{
			"buffer":0,
			"byteLength":103344,
			"byteOffset":0,
			"target":34962
		},
		{
			"buffer":0,
			"byteLength":103344,
			"byteOffset":103344,
			"target":34962
		},
		{
			"buffer":0,
			"byteLength":68896,
			"byteOffset":206688,
			"target":34962
		},
		{
			"buffer":0,
			"byteLength":36216,
			"byteOffset":275584,
			"target":34963
		},
		{
			"buffer":0,
			"byteLength":28620,
			"byteOffset":311800,
			"target":34962
		},
		{
			"buffer":0,
			"byteLength":28620,
			"byteOffset":340420,
			"target":34962
		},
		{
			"buffer":0,
			"byteLength":19080,
			"byteOffset":369040,
			"target":34962
		},
		{
			"buffer":0,
			"byteLength":12984,
			"byteOffset":388120,
			"target":34963
		},
		{
			"buffer":0,
			"byteLength":93696,
			"byteOffset":401104,
			"target":34962
		},
		{
			"buffer":0,
			"byteLength":93696,
			"byteOffset":494800,
			"target":34962
		},
		{
			"buffer":0,
			"byteLength":62464,
			"byteOffset":588496,
			"target":34962
		},
		{
			"buffer":0,
			"byteLength":48420,
			"byteOffset":650960,
			"target":34963
		},
		{
			"buffer":0,
			"byteLength":19656,
			"byteOffset":699380,
			"target":34962
		},
		{
			"buffer":0,
			"byteLength":19656,
			"byteOffset":719036,
			"target":34962
		},
		{
			"buffer":0,
			"byteLength":13104,
			"byteOffset":738692,
			"target":34962
		},
		{
			"buffer":0,
			"byteLength":15504,
			"byteOffset":751796,
			"target":34963
		},
		{
			"buffer":0,
			"byteLength":104844,
			"byteOffset":767300,
			"target":34962
		},
		{
			"buffer":0,
			"byteLength":104844,
			"byteOffset":872144,
			"target":34962
		},
		{
			"buffer":0,
			"byteLength":69896,
			"byteOffset":976988,
			"target":34962
		},
		{
			"buffer":0,
			"byteLength":46908,
			"byteOffset":1046884,
			"target":34963
		},
		{
			"buffer":0,
			"byteLength":1728,
			"byteOffset":1093792,
			"target":34962
		},
		{
			"buffer":0,
			"byteLength":1728,
			"byteOffset":1095520,
			"target":34962
		},
		{
			"buffer":0,
			"byteLength":1152,
			"byteOffset":1097248,
			"target":34962
		},
		{
			"buffer":0,
			"byteLength":768,
			"byteOffset":1098400,
			"target":34963
		},
		{
			"buffer":0,
			"byteLength":1344,
			"byteOffset":1099168,
			"target":34962
		},
		{
			"buffer":0,
			"byteLength":1344,
			"byteOffset":1100512,
			"target":34962
		},
		{
			"buffer":0,
			"byteLength":896,
			"byteOffset":1101856,
			"target":34962
		},
		{
			"buffer":0,
			"byteLength":912,
			"byteOffset":1102752,
			"target":34963
		},
		{
			"buffer":0,
			"byteLength":192,
			"byteOffset":1103664,
			"target":34962
		},
		{
			"buffer":0,
			"byteLength":192,
			"byteOffset":1103856,
			"target":34962
		},
		{
			"buffer":0,
			"byteLength":128,
			"byteOffset":1104048,
			"target":34962
		},
		{
			"buffer":0,
			"byteLength":48,
			"byteOffset":1104176,
			"target":34963
		},
		{
			"buffer":0,
			"byteLength":22716,
			"byteOffset":1104224,
			"target":34962
		},
		{
			"buffer":0,
			"byteLength":22716,
			"byteOffset":1126940,
			"target":34962
		},
		{
			"buffer":0,
			"byteLength":15144,
			"byteOffset":1149656,
			"target":34962
		},
		{
			"buffer":0,
			"byteLength":8652,
			"byteOffset":1164800,
			"target":34963
		},
		{
			"buffer":0,
			"byteLength":1728,
			"byteOffset":1173452,
			"target":34962
		},
		{
			"buffer":0,
			"byteLength":1728,
			"byteOffset":1175180,
			"target":34962
		},
		{
			"buffer":0,
			"byteLength":1152,
			"byteOffset":1176908,
			"target":34962
		},
		{
			"buffer":0,
			"byteLength":768,
			"byteOffset":1178060,
			"target":34963
		},
		{
			"buffer":0,
			"byteLength":1356,
			"byteOffset":1178828,
			"target":34962
		},
		{
			"buffer":0,
			"byteLength":1356,
			"byteOffset":1180184,
			"target":34962
		},
		{
			"buffer":0,
			"byteLength":904,
			"byteOffset":1181540,
			"target":34962
		},
		{
			"buffer":0,
			"byteLength":912,
			"byteOffset":1182444,
			"target":34963
		},
		{
			"buffer":0,
			"byteLength":168,
			"byteOffset":1183356,
			"target":34962
		},
		{
			"buffer":0,
			"byteLength":168,
			"byteOffset":1183524,
			"target":34962
		},
		{
			"buffer":0,
			"byteLength":112,
			"byteOffset":1183692,
			"target":34962
		},
		{
			"buffer":0,
			"byteLength":48,
			"byteOffset":1183804,
			"target":34963
		},
		{
			"buffer":0,
			"byteLength":46896,
			"byteOffset":1183852,
			"target":34962
		},
		{
			"buffer":0,
			"byteLength":46896,
			"byteOffset":1230748,
			"target":34962
		},
		{
			"buffer":0,
			"byteLength":31264,
			"byteOffset":1277644,
			"target":34962
		},
		{
			"buffer":0,
			"byteLength":27468,
			"byteOffset":1308908,
			"target":34963
		},
		{
			"buffer":0,
			"byteLength":22680,
			"byteOffset":1336376,
			"target":34962
		},
		{
			"buffer":0,
			"byteLength":22680,
			"byteOffset":1359056,
			"target":34962
		},
		{
			"buffer":0,
			"byteLength":15120,
			"byteOffset":1381736,
			"target":34962
		},
		{
			"buffer":0,
			"byteLength":8640,
			"byteOffset":1396856,
			"target":34963
		},
		{
			"buffer":0,
			"byteLength":1728,
			"byteOffset":1405496,
			"target":34962
		},
		{
			"buffer":0,
			"byteLength":1728,
			"byteOffset":1407224,
			"target":34962
		},
		{
			"buffer":0,
			"byteLength":1152,
			"byteOffset":1408952,
			"target":34962
		},
		{
			"buffer":0,
			"byteLength":768,
			"byteOffset":1410104,
			"target":34963
		}
	],
	"buffers":[
		{
			"byteLength":1410872,
			"uri":"slsv2.bin"
		}
	]
}
